<?xml version="1.0" encoding="UTF-8" standalone="no"?> <svg xmlns="http://www.w3.org/2000/svg" viewBox="0 0 449.34 511.97"><g id="Layer_2" data-name="Layer 2"><g id="css3"><path d="M101.62,143.52,302,143h0a10,10,0,0,1,10,10.73L308,208.85a10,10,0,0,1-9.85,9.27l-189.37,2.24L112.05,252l181.35-.5h0a10,10,0,0,1,9.94,11.09L295.12,338a10,10,0,0,1-7.34,8.57l-60.17,16.26a9.91,9.91,0,0,1-5.61.12l-60.45-16.35a10,10,0,0,1-7.34-8.76L151,301.66H116.58l6.18,69.43,101.82,28.27,102-28.27,14.3-159.86,4.93-55.61h0l3.87-43.38H99.47Z"/><path d="M446.72,3.25A10,10,0,0,0,439.34,0H10A10,10,0,0,0,0,10.88l39.1,442.77a10,10,0,0,0,7.26,8.75L222,511.6a10,10,0,0,0,5.4,0l175.5-49.17a10,10,0,0,0,7.26-8.75L449.3,10.88A10,10,0,0,0,446.72,3.25Zm-76.17,99.87-4.85,54.27L360.77,213,345.86,379.76a10,10,0,0,1-7.29,8.75L227.31,419.36a10.11,10.11,0,0,1-2.73.38,9.79,9.79,0,0,1-2.68-.37L110.73,388.51a10,10,0,0,1-7.28-8.75l-7.76-87.21a10,10,0,0,1,10-10.88h54.47a10,10,0,0,1,10,9.1l3.42,38.29,51.08,13.82L276,329l6.29-57.46-179.2.5h0a10,10,0,0,1-10-9l-5.4-51.54a10,10,0,0,1,9.83-11l191.16-2.26L291.28,163l-199,.56h0a10,10,0,0,1-10-9.32l-3.52-51.31a10,10,0,0,1,10-10.69H360.58a10,10,0,0,1,10,10.89Z"/></g></g></svg>